<?xml version="1.0" standalone="no"?>
<!DOCTYPE svg PUBLIC "-//W3C//DTD SVG 20010904//EN"
 "http://www.w3.org/TR/2001/REC-SVG-20010904/DTD/svg10.dtd">
<svg version="1.0" xmlns="http://www.w3.org/2000/svg"
 width="238.000000pt" height="238.000000pt" viewBox="0 0 238.000000 238.000000"
 preserveAspectRatio="xMidYMid meet">
<metadata>
Created by potrace 1.11, written by Peter Selinger 2001-2013
</metadata>
<g transform="translate(0.000000,238.000000) scale(0.100000,-0.100000)"
fill="#000000" stroke="none">
<path d="M525 2260 c-177 -50 -318 -163 -413 -332 -33 -57 -79 -200 -92 -282
-24 -150 -13 -267 37 -416 32 -94 89 -196 160 -283 52 -65 263 -276 382 -383
30 -27 64 -58 75 -69 18 -17 398 -350 448 -393 21 -17 82 -27 101 -15 15 8
141 121 252 225 33 31 74 69 90 84 17 15 91 84 165 154 74 70 167 154 205 186
172 142 271 254 334 378 35 69 68 153 77 199 2 10 6 27 9 37 23 72 28 284 8
374 -38 179 -141 333 -290 434 -74 50 -91 58 -172 89 -84 32 -242 40 -341 17
-81 -19 -252 -101 -318 -154 -27 -22 -53 -40 -56 -40 -4 0 -35 22 -69 49 -175
138 -406 192 -592 141z m992 -162 c42 -21 172 -145 260 -248 21 -24 58 -67 83
-95 161 -183 278 -328 301 -375 33 -65 31 -126 -6 -185 -41 -66 -60 -77 -107
-61 -60 21 -144 83 -197 144 -27 31 -97 113 -156 182 -59 69 -117 136 -129
150 -11 14 -77 90 -146 170 -68 80 -127 147 -130 150 -14 12 -73 100 -69 104
12 10 109 60 139 72 53 19 108 17 157 -8z m-1070 -133 c12 -3 61 -49 110 -103
48 -53 90 -99 93 -102 3 -3 41 -45 85 -95 44 -49 85 -95 90 -101 11 -12 91
-102 229 -258 49 -56 117 -132 151 -171 344 -386 361 -415 314 -525 -37 -86
-127 -149 -245 -171 -53 -10 -169 -8 -180 3 -2 3 17 41 44 84 111 186 118 321
22 408 -68 61 -116 81 -200 81 -64 0 -81 -4 -115 -26 -57 -38 -92 -75 -142
-152 l-44 -67 -62 42 c-182 124 -335 336 -388 540 -21 80 -29 216 -16 278 39
188 148 361 217 345 8 -2 25 -6 37 -10z"/>
</g>
</svg>
