<?xml version="1.0" encoding="utf-8"?>
<!-- Generator: Adobe Illustrator 21.0.0, SVG Export Plug-In . SVG Version: 6.00 Build 0)  -->
<svg version="1.1" id="Ebene_1" xmlns="http://www.w3.org/2000/svg" xmlns:xlink="http://www.w3.org/1999/xlink" x="0px" y="0px"
	 viewBox="0 0 50.2 48.5" style="enable-background:new 0 0 50.2 48.5;" xml:space="preserve">
<style type="text/css">
	.st0{fill:#06E8FF;}
</style>
<g>
	<path class="st0" d="M12.6,4.9l0.5-0.5c1.5-1.5,3.6-1.9,5.5-1.4c0.3-1.5,1.6-2.6,3.2-2.6c1.9,0,3.4,1.5,3.4,3.3
		c0,1.7-1.2,3-2.8,3.3c0.4,1.8-0.1,3.8-1.5,5.2l-0.2,0.2l-2.4-2.5l0.2-0.2c0.8-0.8,0.8-2.1,0-2.9s-2.1-0.8-2.9,0l-0.5,0.6l-2.4,2.5
		L10,12.4L7.6,9.9l2.6-2.5L12.6,4.9z"/>
	<path class="st0" d="M15.3,7.6l2.6,2.6l2.5,2.5l0.5,0.5c1.5,1.5,1.9,3.6,1.4,5.5c1.6,0.2,2.9,1.6,2.9,3.3c0,1.9-1.5,3.4-3.4,3.4
		c-1.7,0-3.1-1.3-3.3-2.9c-1.9,0.5-4,0.1-5.4-1.4l-0.2-0.2l2.5-2.5l0.2,0.2c0.8,0.8,2.1,0.8,2.9,0s0.8-2.1,0-2.9L18,15.2l-2.4-2.5
		L13,10.1L15.3,7.6z"/>
	<path class="st0" d="M3,18.7c-0.6-1.9-0.1-4,1.4-5.5L4.6,13L7,15.4l-0.2,0.2c-0.8,0.8-0.8,2.1,0,2.9c0.8,0.8,2.1,0.8,2.9,0l0.5-0.5
		l2.5-2.5l2.5-2.6l2.5,2.4l-2.6,2.6l-2.4,2.4l-0.5,0.5c-1.4,1.4-3.4,1.9-5.2,1.5c-0.2,1.6-1.6,2.9-3.3,2.9c-1.8,0-3.3-1.5-3.3-3.4
		C0.3,20.4,1.4,19,3,18.7z"/>
	<path class="st0" d="M9.9,17.7l-2.6-2.5l-2.5-2.5l-0.5-0.5C2.9,10.8,2.4,8.8,2.8,7C1.4,6.6,0.3,5.3,0.3,3.7c0-1.8,1.5-3.3,3.3-3.3
		c1.6,0,2.9,1.1,3.3,2.5c1.8-0.4,3.8,0,5.3,1.5l0.1,0.2L9.9,7.1L9.7,6.9c-0.8-0.8-2.1-0.8-2.9,0S6,9,6.8,9.8l0.5,0.4l2.4,2.5
		l2.6,2.6L9.9,17.7z"/>
</g>
<g>
	<path class="st0" d="M37.5,28l0.5-0.5c1.5-1.5,3.6-1.9,5.5-1.4c0.3-1.5,1.6-2.6,3.2-2.6c1.9,0,3.4,1.5,3.4,3.3c0,1.7-1.2,3-2.8,3.3
		c0.4,1.8-0.1,3.8-1.5,5.2l-0.2,0.2L43.2,33l0.2-0.2c0.8-0.8,0.8-2.1,0-2.9c-0.8-0.8-2.1-0.8-2.9,0L40,30.5L37.6,33l-2.7,2.5
		L32.5,33l2.6-2.5L37.5,28z"/>
	<path class="st0" d="M40.2,30.7l2.6,2.6l2.5,2.5l0.5,0.5c1.5,1.5,1.9,3.6,1.4,5.5c1.6,0.2,2.9,1.6,2.9,3.3c0,1.9-1.5,3.4-3.4,3.4
		c-1.7,0-3.1-1.3-3.3-2.9c-1.9,0.5-4,0.1-5.4-1.4L37.8,44l2.5-2.5l0.2,0.2c0.8,0.8,2.1,0.8,2.9,0s0.8-2.1,0-2.9l-0.5-0.5l-2.4-2.5
		l-2.6-2.6L40.2,30.7z"/>
	<path class="st0" d="M27.9,41.8c-0.6-1.9-0.1-4,1.4-5.5l0.2-0.2l2.4,2.4l-0.2,0.2c-0.8,0.8-0.8,2.1,0,2.9c0.8,0.8,2.1,0.8,2.9,0
		l0.5-0.5l2.5-2.5l2.5-2.6l2.5,2.4L40,41l-2.4,2.4l-0.5,0.5c-1.4,1.4-3.4,1.9-5.2,1.5c-0.2,1.6-1.6,2.9-3.3,2.9
		c-1.8,0-3.3-1.5-3.3-3.4C25.2,43.5,26.3,42.1,27.9,41.8z"/>
	<path class="st0" d="M34.8,40.8l-2.6-2.5l-2.5-2.5l-0.5-0.5c-1.4-1.4-1.9-3.4-1.5-5.2c-1.4-0.4-2.5-1.7-2.5-3.3
		c0-1.8,1.5-3.3,3.3-3.3c1.6,0,2.9,1.1,3.3,2.5c1.8-0.4,3.8,0,5.3,1.5l0.1,0.2l-2.4,2.5L34.6,30c-0.8-0.8-2.1-0.8-2.9,0
		c-0.8,0.8-0.8,2.1,0,2.9l0.5,0.4l2.4,2.5l2.6,2.6L34.8,40.8z"/>
</g>
</svg>
