<?xml version="1.0" encoding="UTF-8" standalone="yes"?>
<!DOCTYPE svg PUBLIC "-//W3C//DTD SVG 1.1//EN" "http://www.w3.org/Graphics/SVG/1.1/DTD/svg11.dtd">

<svg width="16" height="16" viewBox="0 0 16 16" xmlns="http://www.w3.org/2000/svg" xmlns:xlink="http://www.w3.org/1999/xlink" version="1.1" baseProfile="full">
    <defs>
        <linearGradient id="105553176109104105553153394880" x1="100.000000%" x2="100.000000%" y1="0.000000%" y2="100.000000%">
            <stop offset="1%" style="stop-color:#ffffff;stop-opacity:1.000000"></stop>
            <stop offset="100%" style="stop-color:#ffffff;stop-opacity:1.000000"></stop>
        </linearGradient>
    </defs>
    <g transform="scale(1,-1) translate(0,-16)">
        <path d="M 2.019999 4.142943 C 2.019999 2.960961 2.977551 1.999999 4.159892 1.999999 C 5.223838 2.001601 6.106994 2.778378 6.271786 3.796196 C 7.426128 3.524724 8.690065 3.840240 9.590020 4.741141 L 9.713214 4.864464 L 8.134093 6.445245 L 8.011699 6.321922 C 7.498925 5.808608 6.668566 5.808608 6.154992 6.322722 C 5.640617 6.836837 5.641417 7.671271 6.152592 8.182983 L 6.462176 8.492092 L 8.041297 10.072072 L 9.712414 11.743343 L 8.134093 13.324925 L 6.462176 11.652052 L 4.882255 10.071271 L 4.574271 9.762963 C 3.619918 8.807607 3.324733 7.443043 3.686315 6.232232 C 2.732763 6.018418 2.019999 5.164765 2.019999 4.142943 Z M 6.650167 8.304704 L 8.229288 9.885485 L 9.900404 8.215015 L 11.479525 6.634234 L 11.788310 6.325925 C 12.302684 5.811010 13.131443 5.811811 13.642617 6.323523 C 14.155392 6.836036 14.155392 7.668068 13.641817 8.181381 L 13.520223 8.304704 L 15.099345 9.885485 L 15.222538 9.762162 C 16.166491 8.815615 16.467276 7.469469 16.122493 6.269069 C 17.171241 6.131331 17.980800 5.232832 17.980800 4.144544 C 17.981600 2.961761 17.023248 2.001601 15.840907 2.001601 C 14.759362 2.001601 13.864206 2.805605 13.720213 3.849048 C 12.516274 3.495895 11.161141 3.794594 10.210789 4.745144 L 9.902004 5.052652 L 8.322083 6.633433 L 6.650167 8.304704 Z M 16.160092 13.734134 C 16.443278 12.570570 16.129693 11.291691 15.221739 10.382782 L 14.912154 10.072072 L 13.333033 8.491291 L 11.666717 6.821621 L 10.086795 8.401601 L 11.754712 10.072872 L 13.333833 11.653653 L 13.642618 11.963563 C 14.157792 12.479279 14.156192 13.308909 13.645818 13.820620 C 13.133043 14.333934 12.301885 14.333934 11.789110 13.819820 L 11.667516 13.698899 L 10.089195 15.281281 L 10.209989 15.402202 C 11.171541 16.363964 12.547472 16.657858 13.762612 16.284685 C 13.959402 17.264064 14.824159 18.000000 15.859307 18.000000 C 17.040848 18.000000 18.000000 17.040641 18.000000 15.857057 C 17.999999 14.774374 17.200039 13.879881 16.160092 13.734134 Z M 13.146642 11.840240 L 11.567521 10.259459 L 9.899605 11.930731 L 8.320484 13.511511 L 8.011699 13.821421 C 7.500525 14.333934 6.667766 14.334735 6.153392 13.819820 C 5.640618 13.306506 5.640618 12.475275 6.152592 11.961161 L 6.274986 11.840240 L 4.695865 10.259460 L 4.575071 10.379580 C 3.656717 11.298899 3.347932 12.596197 3.646317 13.769370 C 2.702364 13.991192 1.999999 14.840841 1.999999 15.853855 C 1.999999 17.036638 2.958352 17.996798 4.140693 17.996798 C 5.157442 17.995196 6.009399 17.287288 6.226988 16.335136 C 7.394130 16.625026 8.679666 16.315116 9.591620 15.402203 L 9.901205 15.092293 L 11.479526 13.509911 L 13.146642 11.840240 Z" transform="scale(1.000000,1.000000) translate(-2.000000,-2.000000)" fill="url(#105553176109104105553153394880)" opacity="0.900000"></path>
    </g>
</svg>