<?xml version="1.0" encoding="utf-8"?>
<!-- Generator: Adobe Illustrator 21.0.0, SVG Export Plug-In . SVG Version: 6.00 Build 0)  -->
<svg version="1.1" id="Ebene_1" xmlns="http://www.w3.org/2000/svg" xmlns:xlink="http://www.w3.org/1999/xlink" x="0px" y="0px"
	 viewBox="0 0 49.8 50" style="enable-background:new 0 0 49.8 50;" xml:space="preserve">
<style type="text/css">
	.st0{fill:#014266;}
</style>
<g>
	<path class="st0" d="M12.3,4.5L12.8,4c1.5-1.5,3.6-1.9,5.5-1.4C18.6,1.1,19.9,0,21.5,0c1.9,0,3.4,1.5,3.4,3.3c0,1.7-1.2,3-2.8,3.3
		c0.4,1.8-0.1,3.8-1.5,5.2L20.4,12L18,9.5l0.2-0.2c0.8-0.8,0.8-2.1,0-2.9s-2.1-0.8-2.9,0L14.8,7l-2.4,2.5L9.7,12L7.3,9.5L9.9,7
		L12.3,4.5z"/>
	<path class="st0" d="M15,7.2l2.6,2.6l2.5,2.5l0.5,0.5c1.5,1.5,1.9,3.6,1.4,5.5c1.6,0.2,2.9,1.6,2.9,3.3c0,1.9-1.5,3.4-3.4,3.4
		c-1.7,0-3.1-1.3-3.3-2.9c-1.9,0.5-4,0.1-5.4-1.4l-0.2-0.2l2.5-2.5l0.2,0.2c0.8,0.8,2.1,0.8,2.9,0s0.8-2.1,0-2.9l-0.5-0.5l-2.4-2.5
		l-2.6-2.6L15,7.2z"/>
	<path class="st0" d="M2.7,18.3c-0.6-1.9-0.1-4,1.4-5.5l0.2-0.2L6.7,15l-0.2,0.2c-0.8,0.8-0.8,2.1,0,2.9c0.8,0.8,2.1,0.8,2.9,0
		l0.5-0.5l2.5-2.5l2.5-2.6l2.5,2.4l-2.6,2.6l-2.4,2.4l-0.5,0.5c-1.4,1.4-3.4,1.9-5.2,1.5c-0.2,1.6-1.6,2.9-3.3,2.9
		c-1.8,0-3.3-1.5-3.3-3.4C0,20,1.1,18.6,2.7,18.3z"/>
	<path class="st0" d="M9.6,17.3L7,14.8l-2.5-2.5L4,11.8c-1.4-1.4-1.9-3.4-1.5-5.2C1.1,6.2,0,4.9,0,3.3C0,1.5,1.5,0,3.3,0
		c1.6,0,2.9,1.1,3.3,2.5c1.8-0.4,3.8,0,5.3,1.5L12,4.2L9.6,6.7L9.4,6.5c-0.8-0.8-2.1-0.8-2.9,0s-0.8,2.1,0,2.9L7,9.8l2.4,2.5
		l2.6,2.6L9.6,17.3z"/>
</g>
<g>
	<path class="st0" d="M37.2,29.5l0.5-0.5c1.5-1.5,3.6-1.9,5.5-1.4c0.3-1.5,1.6-2.6,3.2-2.6c1.9,0,3.4,1.5,3.4,3.3
		c0,1.7-1.2,3-2.8,3.3c0.4,1.8-0.1,3.8-1.5,5.2L45.3,37l-2.4-2.5l0.2-0.2c0.8-0.8,0.8-2.1,0-2.9c-0.8-0.8-2.1-0.8-2.9,0L39.7,32
		l-2.4,2.5L34.6,37l-2.4-2.5l2.6-2.5L37.2,29.5z"/>
	<path class="st0" d="M39.9,32.2l2.6,2.6l2.5,2.5l0.5,0.5c1.5,1.5,1.9,3.6,1.4,5.5c1.6,0.2,2.9,1.6,2.9,3.3c0,1.9-1.5,3.4-3.4,3.4
		c-1.7,0-3.1-1.3-3.3-2.9c-1.9,0.5-4,0.1-5.4-1.4l-0.2-0.2L40,43l0.2,0.2c0.8,0.8,2.1,0.8,2.9,0c0.8-0.8,0.8-2.1,0-2.9l-0.5-0.5
		l-2.4-2.5l-2.6-2.6L39.9,32.2z"/>
	<path class="st0" d="M27.6,43.3c-0.6-1.9-0.1-4,1.4-5.5l0.2-0.2l2.4,2.4l-0.2,0.2c-0.8,0.8-0.8,2.1,0,2.9c0.8,0.8,2.1,0.8,2.9,0
		l0.5-0.5l2.5-2.5l2.5-2.6l2.5,2.4l-2.6,2.6l-2.4,2.4l-0.5,0.5c-1.4,1.4-3.4,1.9-5.2,1.5c-0.2,1.6-1.6,2.9-3.3,2.9
		c-1.8,0-3.3-1.5-3.3-3.4C24.9,45,26,43.6,27.6,43.3z"/>
	<path class="st0" d="M34.5,42.3l-2.6-2.5l-2.5-2.5l-0.5-0.5c-1.4-1.4-1.9-3.4-1.5-5.2c-1.4-0.4-2.5-1.7-2.5-3.3
		c0-1.8,1.5-3.3,3.3-3.3c1.6,0,2.9,1.1,3.3,2.5c1.8-0.4,3.8,0,5.3,1.5l0.1,0.2l-2.4,2.5l-0.2-0.2c-0.8-0.8-2.1-0.8-2.9,0
		s-0.8,2.1,0,2.9l0.5,0.4l2.4,2.5l2.6,2.6L34.5,42.3z"/>
</g>
</svg>
