<?xml version="1.0" encoding="UTF-8" standalone="yes"?>
<!DOCTYPE svg PUBLIC "-//W3C//DTD SVG 1.1//EN" "http://www.w3.org/Graphics/SVG/1.1/DTD/svg11.dtd">

<svg width="24" height="24" viewBox="0 0 24 24" xmlns="http://www.w3.org/2000/svg" xmlns:xlink="http://www.w3.org/1999/xlink" version="1.1" baseProfile="full">
    <defs>
        <linearGradient id="105553176161456105553150797664" x1="100.000000%" x2="100.000000%" y1="0.000000%" y2="100.000000%">
            <stop offset="1%" style="stop-color:#ffa7ac;stop-opacity:1.000000"></stop>
            <stop offset="100%" style="stop-color:#ffb4b3;stop-opacity:1.000000"></stop>
        </linearGradient>
    </defs>
    <g transform="scale(1,-1) translate(0,-24)">
        <path d="M 1.819759 3.956557 C 1.819759 2.774575 2.777311 1.813614 3.959652 1.813614 C 5.023599 1.815216 5.906755 2.591992 6.071546 3.609810 C 7.225889 3.338339 8.489825 3.653854 9.389780 4.554755 L 9.512974 4.678078 L 7.933853 6.258859 L 7.811459 6.135536 C 7.298685 5.622223 6.468326 5.622223 5.954752 6.136337 C 5.440378 6.650451 5.441178 7.484885 5.952352 7.996597 L 6.261937 8.305706 L 7.841058 9.885686 L 9.512174 11.556958 L 7.933853 13.138539 L 6.261937 11.465666 L 4.682016 9.884885 L 4.374031 9.576577 C 3.419679 8.621222 3.124494 7.256657 3.486075 6.045846 C 2.532523 5.832033 1.819759 4.978379 1.819759 3.956557 Z M 6.449927 8.118319 L 8.029048 9.699099 L 9.700165 8.028629 L 11.279286 6.447848 L 11.588070 6.139540 C 12.102444 5.624625 12.931203 5.625426 13.442377 6.137137 C 13.955152 6.649650 13.955152 7.481682 13.441577 7.994995 L 13.319984 8.118319 L 14.899105 9.699099 L 15.022298 9.575776 C 15.966251 8.629229 16.267036 7.283083 15.922253 6.082683 C 16.971001 5.944945 17.780560 5.046447 17.780560 3.958158 C 17.781360 2.775375 16.823008 1.815215 15.640667 1.815215 C 14.559122 1.815215 13.663966 2.619219 13.519974 3.662662 C 12.316034 3.309509 10.960902 3.608208 10.010549 4.558759 L 9.701764 4.866266 L 8.121843 6.447047 L 6.449927 8.118319 Z M 15.959852 13.547748 C 16.243038 12.384184 15.929453 11.105306 15.021499 10.196397 L 14.711914 9.885686 L 13.132793 8.304905 L 11.466477 6.635235 L 9.886556 8.215215 L 11.554472 9.886487 L 13.133593 11.467267 L 13.442378 11.777177 C 13.957552 12.292893 13.955952 13.122523 13.445578 13.634234 C 12.932803 14.147548 12.101645 14.147548 11.588870 13.633434 L 11.467277 13.512513 L 9.888955 15.094895 L 10.009749 15.215816 C 10.971301 16.177578 12.347232 16.471472 13.562372 16.098299 C 13.759162 17.077678 14.623919 17.813614 15.659067 17.813614 C 16.840608 17.813614 17.799760 16.854255 17.799760 15.670671 C 17.799759 14.587988 16.999799 13.693495 15.959852 13.547748 Z M 12.946402 11.653854 L 11.367281 10.073073 L 9.699365 11.744345 L 8.120244 13.325125 L 7.811459 13.635035 C 7.300285 14.147548 6.467527 14.148349 5.953152 13.633434 C 5.440378 13.120120 5.440378 12.288889 5.952352 11.774775 L 6.074746 11.653854 L 4.495625 10.073074 L 4.374831 10.193194 C 3.456477 11.112514 3.147692 12.409811 3.446077 13.582984 C 2.502125 13.804806 1.799760 14.654455 1.799760 15.667469 C 1.799760 16.850252 2.758112 17.810412 3.940453 17.810412 C 4.957202 17.808810 5.809159 17.100902 6.026749 16.148750 C 7.193890 16.438640 8.479426 16.128730 9.391380 15.215817 L 9.700965 14.905907 L 11.279286 13.323525 L 12.946402 11.653854 Z" transform="scale(1.000000,1.000000) translate(3.000000,3.000000)" fill="url(#105553176161456105553150797664)" opacity="0.900000"></path>
    </g>
</svg>