<svg fill="#ffffff" version="1.1" xmlns="http://www.w3.org/2000/svg" xmlns:xlink="http://www.w3.org/1999/xlink" x="0px" y="0px" viewBox="0 0 23.7 19.2" xml:space="preserve">
<path d="M23.7,2.3c-0.7,1-1.5,1.8-2.4,2.5c0,0.1,0,0.4,0,0.6c0,1.3-0.2,2.6-0.6,3.9c-0.4,1.3-1,2.5-1.7,3.7
	c-0.8,1.2-1.7,2.2-2.8,3.2c-1.1,0.9-2.4,1.6-3.9,2.2c-1.5,0.5-3.1,0.8-4.9,0.8c-2.7,0-5.2-0.7-7.5-2.2c0.4,0,0.7,0.1,1.2,0.1
	c2.3,0,4.3-0.7,6-2.1c-1.1,0-2-0.3-2.8-1c-0.8-0.6-1.4-1.4-1.7-2.4c0.3,0.1,0.6,0.1,0.9,0.1c0.4,0,0.9-0.1,1.3-0.2
	c-1.1-0.2-2.1-0.8-2.8-1.7C1.3,9,1,8,1,6.8V6.8c0.7,0.4,1.4,0.6,2.2,0.6C2.5,6.9,2,6.4,1.6,5.6C1.2,4.9,1,4.2,1,3.3
	c0-0.9,0.2-1.7,0.7-2.4c1.2,1.5,2.7,2.7,4.4,3.6C7.8,5.4,9.7,5.9,11.7,6c-0.1-0.4-0.1-0.8-0.1-1.1c0-1.3,0.5-2.5,1.4-3.4
	S15,0,16.4,0c1.4,0,2.6,0.5,3.5,1.5C21,1.3,22.1,0.9,23,0.4c-0.4,1.2-1.1,2-2.1,2.7C21.8,2.9,22.7,2.7,23.7,2.3z"/>
</svg>
